- 
http://www.Speed.Cd
 
http://www.Speed.Cd       the fast  and The Hottest Private Tracker on the net

(((--Registration is Open!!--)))

Please Seed back to make the speed Faster!!!

and don't forget to visit .......http://www.Speed.Cd  ......


 ............ NFO .............
-General
Complete name                            : Warehouse.13.S04E09.720p.WEB-DL.DD5.1.H.264-POD.mkv
Format                                   : Matroska
Format version                           : Version 2
File size                                : 1.37 GiB
Duration                                 : 42mn 57s
Overall bit rate                         : 4 570 Kbps
Encoded date                             : UTC 2012-09-25 08:05:08
Writing application                      : mkvmerge v4.0.0 ('The Stars were mine') built on Jun  5 2010 17:44:09
Writing library                          : libebml v1.0.0 + libmatroska v1.0.0

Video
ID                                       : 1
Format                                   : AVC
Format/Info                              : Advanced Video Codec
Format profile                           : High@L3.1
Format settings, CABAC                   : No
Format settings, ReFrames                : 2 frames
Codec ID                                 : V_MPEG4/ISO/AVC
Duration                                 : 42mn 57s
Bit rate                                 : 4 095 Kbps
Width                                    : 1 280 pixels
Height                                   : 720 pixels
Display aspect ratio                     : 16:9
Frame rate                               : 23.976 fps
Color space                              : YUV
Chroma subsampling                       : 4:2:0
Bit depth                                : 8 bits
Scan type                                : Progressive
Bits/(Pixel*Frame)                       : 0.185
Stream size                              : 1.23 GiB (90%)
Language                                 : English
Default                                  : Yes
Forced                                   : No
Color primaries                          : BT.709-5, BT.1361, IEC 61966-2-4, SMPTE RP177
Transfer characteristics                 : BT.709-5, BT.1361
Matrix coefficients                      : BT.709-5, BT.1361, IEC 61966-2-4 709, SMPTE RP177

Audio
ID                                       : 2
Format                                   : AC-3
Format/Info                              : Audio Coding 3
Mode extension                           : CM (complete main)
Format settings, Endianness              : Big
Codec ID                                 : A_AC3
Duration                                 : 42mn 57s
Bit rate mode                            : Constant
Bit rate                                 : 384 Kbps
Channel(s)                               : 6 channels
Channel positions                        : Front: L C R, Side: L R, LFE
Sampling rate                            : 48.0 KHz
Bit depth                                : 16 bits
Compression mode                         : Lossy
Stream size                              : 118 MiB (8%)
Language                                 : English
Default                                  : Yes
Forced                                   : No